<svg preserveAspectRatio="none" width="100%" height="100%" overflow="visible" style="display: block;" viewBox="0 0 50.8568 21.8188" fill="none" xmlns="http://www.w3.org/2000/svg">
<g id="Group 3">
<path id="Vector 11" d="M28.2591 19.396L38.1821 6.34782C38.2626 6.242 38.1557 6.09646 38.0307 6.14157L27.508 9.93772C27.4609 9.95472 27.4082 9.94388 27.3716 9.90965L23.8051 6.57304C23.7829 6.55226 23.7542 6.53969 23.7239 6.53743L11.5416 5.62753C11.4757 5.6226 11.4157 5.6683 11.4014 5.73288C10.1361 11.4324 10.7321 14.2595 11.4112 19.3316C11.4201 19.3979 11.4768 19.4486 11.5436 19.4486H28.1529C28.1945 19.4486 28.2338 19.4291 28.2591 19.396Z" fill="var(--fill-0, #EBEBEB)" stroke="var(--stroke-0, #EBEBEB)" stroke-width="0.720407" stroke-linecap="round"/>
<path id="Vector 10" d="M47.5857 6.23433L45.6032 4.13834C45.3922 3.91532 45.0751 3.82747 44.7795 3.91013L27.595 8.71526C27.5475 8.72854 27.4966 8.71453 27.4626 8.67883L24.5859 5.66104C24.5607 5.63463 24.5258 5.61968 24.4893 5.61968H18.9481M18.9481 5.61968V0.570749M18.9481 5.61968H11.4001C11.3795 5.61968 11.3593 5.61495 11.3409 5.60587L2.0826 1.02943C1.48201 0.732561 0.867613 1.40721 1.21922 1.97749L11.3689 18.4396M18.9481 0.570749H22.91M18.9481 0.570749H14.5125" stroke="var(--stroke-0, #EBEBEB)" stroke-width="0.720407" stroke-linecap="round"/>
<path id="Ellipse 4" d="M50.8566 18.4822C50.8566 20.325 49.3913 21.8188 47.5837 21.8188C45.7762 21.8188 44.3109 20.325 44.3109 18.4822C44.3109 16.6394 46.7225 11.4576 47.5837 11.4576C48.445 11.4576 50.8566 16.6394 50.8566 18.4822Z" fill="var(--fill-0, #EBEBEB)"/>
</g>
</svg>
